<svg height="512" viewBox="0 0 58 58" width="512" xmlns="http://www.w3.org/2000/svg"><g id="Page-1" fill="none" fill-rule="evenodd"><g id="082---Branding-Design" fill-rule="nonzero"><path id="Shape" d="m2 50v-40c0-1.65685425 1.34314575-3 3-3h48c1.6568542 0 3 1.34314575 3 3v40z" fill="#9fc9d3"/><path id="Shape" d="m52 58h-46c-3.3137085 0-6-2.6862915-6-6v-2c0-.5522847.44771525-1 1-1h56c.5522847 0 1 .4477153 1 1v2c0 3.3137085-2.6862915 6-6 6z" fill="#3b97d3"/><path id="Shape" d="m19 49h20v2c0 1.6568542-1.3431458 3-3 3h-14c-1.6568542 0-3-1.3431458-3-3z" fill="#2980ba"/><path id="Shape" d="m15 54h-3c-.5522847 0-1-.4477153-1-1s.4477153-1 1-1h3c.5522847 0 1 .4477153 1 1s-.4477153 1-1 1z" fill="#2980ba"/><circle id="Oval" cx="4" cy="53" fill="#65ddb9" r="1"/><circle id="Oval" cx="8" cy="53" fill="#f0c419" r="1"/><path id="Shape" d="m47 49v-48c0-.55228475-.4477153-1-1-1h-29c-.5522847 0-1 .44771525-1 1v48z" fill="#ecf0f1"/><path id="Shape" d="m41.15 38-6.55 6.42c-.3829433-.3733031-.5992421-.8852101-.6-1.42v-10c.0007579-.5347899.2170567-1.0466969.6-1.42z" fill="#f0c419"/><path id="Shape" d="m51.4 44.42c-.3702866.3728338-.8745343.5817364-1.4.58h-14c-.5254657.0017364-1.0297134-.2071662-1.4-.58l6.55-6.42.44.43c.7863941.7599726 2.0336059.7599726 2.82 0l.44-.43z" fill="#f29c1f"/><path id="Shape" d="m52 33v10c-.0007579.5347899-.2170567 1.0466969-.6 1.42l-6.55-6.42 6.55-6.42c.3829433.3733031.5992421.8852101.6 1.42z" fill="#f0c419"/><rect id="Rectangle-path" fill="#f0c419" height="14" rx="2" width="18" x="34" y="13"/><path id="Shape" d="m51.4 31.58-6.55 6.42-.44.43c-.7863941.7599726-2.0336059.7599726-2.82 0l-.44-.43-6.55-6.42c.3702866-.3728338.8745343-.5817364 1.4-.58h14c.5254657-.0017364 1.0297134.2071662 1.4.58z" fill="#f3d55b"/><circle id="Oval" cx="40" cy="19" fill="#e64c3c" r="2"/><path id="Shape" d="m48 24h-3c-.5522847 0-1-.4477153-1-1s.4477153-1 1-1h3c.5522847 0 1 .4477153 1 1s-.4477153 1-1 1z" fill="#3f5c6c"/><path id="Shape" d="m34 15h-12c-.5522847 0-1 .4477153-1 1v2c0 .5522847.4477153 1 1 1h12z" fill="#95a5a5"/><g fill="#547580"><path id="Shape" d="m30 24h-7c-.5522847 0-1-.4477153-1-1s.4477153-1 1-1h7c.5522847 0 1 .4477153 1 1s-.4477153 1-1 1z"/><path id="Shape" d="m30 28h-7c-.5522847 0-1-.4477153-1-1s.4477153-1 1-1h7c.5522847 0 1 .4477153 1 1s-.4477153 1-1 1z"/><path id="Shape" d="m30 32h-7c-.5522847 0-1-.4477153-1-1s.4477153-1 1-1h7c.5522847 0 1 .4477153 1 1s-.4477153 1-1 1z"/><path id="Shape" d="m30 36h-7c-.5522847 0-1-.4477153-1-1s.4477153-1 1-1h7c.5522847 0 1 .4477153 1 1s-.4477153 1-1 1z"/></g><path id="Shape" d="m47 .99v7.01h-31v-7c0-.55228475.4477153-1 1-1h29c.548403-.00002742.994516.44162446 1 .99z" fill="#3b97d3"/><path id="Rectangle-path" d="m6 5h6v29h-6z" fill="#e64c3c"/><path id="Shape" d="m6 34h6v4c0 .5522847-.4477153 1-1 1h-4c-.55228475 0-1-.4477153-1-1z" fill="#fb7b76"/><path id="Shape" d="m12 5-2.106-4.42c-.15745654-.35279293-.50766411-.57999499-.894-.57999499s-.73654346.22720206-.894.57999499l-2.106 4.42z" fill="#fdd7ad"/><circle id="Oval" cx="22" cy="6" fill="#65ddb9" r="2"/><path id="Shape" d="m32 5h-3c-.5522847 0-1-.44771525-1-1s.4477153-1 1-1h3c.5522847 0 1 .44771525 1 1s-.4477153 1-1 1z" fill="#2980ba"/></g></g></svg>